<mxfile host="app.diagrams.net" agent="Mozilla/5.0 (Windows NT 10.0; Win64; x64) AppleWebKit/537.36 (KHTML, like Gecko) Chrome/135.0.0.0 Safari/537.36 Edg/135.0.0.0" version="26.2.12">
  <diagram name="第 1 页" id="SZHrtpkMDcCHFZ-cg8oU">
    <mxGraphModel dx="1150" dy="637" grid="1" gridSize="10" guides="1" tooltips="1" connect="1" arrows="1" fold="1" page="1" pageScale="1" pageWidth="827" pageHeight="1169" math="1" shadow="0">
      <root>
        <mxCell id="0" />
        <mxCell id="1" parent="0" />
        <mxCell id="9y4C_ep3Hyd6bkdzGa_x-39" value="" style="rounded=1;whiteSpace=wrap;html=1;" vertex="1" parent="1">
          <mxGeometry x="538" y="200" width="132" height="230" as="geometry" />
        </mxCell>
        <mxCell id="9y4C_ep3Hyd6bkdzGa_x-23" value="" style="rounded=1;whiteSpace=wrap;html=1;" vertex="1" parent="1">
          <mxGeometry x="342" y="320" width="170" height="110" as="geometry" />
        </mxCell>
        <mxCell id="9y4C_ep3Hyd6bkdzGa_x-16" value="" style="rounded=1;whiteSpace=wrap;html=1;" vertex="1" parent="1">
          <mxGeometry x="342" y="200" width="170" height="110" as="geometry" />
        </mxCell>
        <mxCell id="9y4C_ep3Hyd6bkdzGa_x-5" value="" style="rounded=1;whiteSpace=wrap;html=1;" vertex="1" parent="1">
          <mxGeometry x="89" y="200" width="180" height="230" as="geometry" />
        </mxCell>
        <mxCell id="9y4C_ep3Hyd6bkdzGa_x-1" value="&lt;font style=&quot;font-size: 15px;&quot;&gt;Resistance distance on signed graph&lt;/font&gt;" style="rounded=1;whiteSpace=wrap;html=1;" vertex="1" parent="1">
          <mxGeometry x="104" y="211" width="150" height="50" as="geometry" />
        </mxCell>
        <mxCell id="9y4C_ep3Hyd6bkdzGa_x-3" value="&lt;font style=&quot;font-size: 15px;&quot;&gt;expand&lt;/font&gt;" style="text;html=1;align=center;verticalAlign=middle;resizable=0;points=[];autosize=1;strokeColor=none;fillColor=none;" vertex="1" parent="1">
          <mxGeometry x="184" y="320" width="70" height="30" as="geometry" />
        </mxCell>
        <mxCell id="9y4C_ep3Hyd6bkdzGa_x-4" value="&lt;font style=&quot;font-size: 15px;&quot;&gt;Expression on unsigned graph&lt;/font&gt;" style="rounded=1;whiteSpace=wrap;html=1;" vertex="1" parent="1">
          <mxGeometry x="104" y="355" width="150" height="60" as="geometry" />
        </mxCell>
        <mxCell id="9y4C_ep3Hyd6bkdzGa_x-6" value="" style="shape=flexArrow;endArrow=classic;html=1;rounded=0;width=10.833333333333334;endSize=4.333333333333334;" edge="1" parent="1">
          <mxGeometry width="50" height="50" relative="1" as="geometry">
            <mxPoint x="275.5" y="280.8" as="sourcePoint" />
            <mxPoint x="332.5" y="280.8" as="targetPoint" />
            <Array as="points">
              <mxPoint x="297.5" y="280.8" />
            </Array>
          </mxGeometry>
        </mxCell>
        <mxCell id="9y4C_ep3Hyd6bkdzGa_x-8" value="&lt;span style=&quot;font-size: 14px;&quot;&gt;Sample-&lt;/span&gt;&lt;div&gt;&lt;span style=&quot;font-size: 14px;&quot;&gt;based&lt;/span&gt;&lt;div&gt;&lt;span style=&quot;font-size: 14px;&quot;&gt;algorithm&lt;/span&gt;&lt;/div&gt;&lt;/div&gt;" style="text;html=1;align=center;verticalAlign=middle;resizable=0;points=[];autosize=1;strokeColor=none;fillColor=none;" vertex="1" parent="1">
          <mxGeometry x="264" y="345" width="80" height="60" as="geometry" />
        </mxCell>
        <mxCell id="9y4C_ep3Hyd6bkdzGa_x-9" value="&lt;span style=&quot;font-size: 14px;&quot;&gt;Solver-&lt;/span&gt;&lt;div&gt;&lt;span style=&quot;font-size: 14px;&quot;&gt;based&lt;/span&gt;&lt;div&gt;&lt;span style=&quot;font-size: 14px;&quot;&gt;algorithm&lt;/span&gt;&lt;/div&gt;&lt;/div&gt;" style="text;html=1;align=center;verticalAlign=middle;resizable=0;points=[];autosize=1;strokeColor=none;fillColor=none;" vertex="1" parent="1">
          <mxGeometry x="264" y="211" width="80" height="60" as="geometry" />
        </mxCell>
        <mxCell id="9y4C_ep3Hyd6bkdzGa_x-12" value="&lt;span style=&quot;font-size: 14px; text-wrap-mode: nowrap;&quot;&gt;JL Lemma: `R^n \rightarrow R^d`&amp;nbsp;&lt;/span&gt;" style="rounded=1;whiteSpace=wrap;html=1;" vertex="1" parent="1">
          <mxGeometry x="352" y="210" width="150" height="30" as="geometry" />
        </mxCell>
        <mxCell id="9y4C_ep3Hyd6bkdzGa_x-14" value="&lt;span style=&quot;font-size: 14px; text-wrap-mode: nowrap;&quot;&gt;Solve linear equation&amp;nbsp;&lt;/span&gt;&lt;div&gt;&lt;span style=&quot;font-size: 14px; text-wrap-mode: nowrap;&quot;&gt;for `d` times&lt;/span&gt;&lt;/div&gt;" style="rounded=1;whiteSpace=wrap;html=1;" vertex="1" parent="1">
          <mxGeometry x="352" y="261" width="150" height="40" as="geometry" />
        </mxCell>
        <mxCell id="9y4C_ep3Hyd6bkdzGa_x-17" value="&lt;span style=&quot;font-size: 14px; text-wrap-mode: nowrap;&quot;&gt;Simulate `k`-absorbed&amp;nbsp;&lt;/span&gt;&lt;div&gt;&lt;span style=&quot;font-size: 14px; text-wrap-mode: nowrap;&quot;&gt;random walk from `u`&lt;/span&gt;&lt;/div&gt;" style="rounded=1;whiteSpace=wrap;html=1;" vertex="1" parent="1">
          <mxGeometry x="352" y="330" width="150" height="40" as="geometry" />
        </mxCell>
        <mxCell id="9y4C_ep3Hyd6bkdzGa_x-18" value="&lt;font style=&quot;font-size: 15px;&quot;&gt;Signed Laplacian&lt;/font&gt;" style="rounded=1;whiteSpace=wrap;html=1;" vertex="1" parent="1">
          <mxGeometry x="104" y="293" width="150" height="30" as="geometry" />
        </mxCell>
        <mxCell id="9y4C_ep3Hyd6bkdzGa_x-22" value="&lt;span style=&quot;font-size: 14px; text-wrap-mode: nowrap;&quot;&gt;Simulate `k`-absorbed&amp;nbsp;&lt;/span&gt;&lt;div&gt;&lt;span style=&quot;font-size: 14px; text-wrap-mode: nowrap;&quot;&gt;random walk from `v`&lt;/span&gt;&lt;/div&gt;" style="rounded=1;whiteSpace=wrap;html=1;" vertex="1" parent="1">
          <mxGeometry x="352" y="380" width="150" height="40" as="geometry" />
        </mxCell>
        <mxCell id="9y4C_ep3Hyd6bkdzGa_x-24" value="" style="shape=flexArrow;endArrow=classic;html=1;rounded=0;width=4.357541899441341;endSize=2.241340782122905;endWidth=6.663961798945102;" edge="1" parent="1">
          <mxGeometry width="50" height="50" relative="1" as="geometry">
            <mxPoint x="424.94" y="243" as="sourcePoint" />
            <mxPoint x="424.98" y="258" as="targetPoint" />
          </mxGeometry>
        </mxCell>
        <mxCell id="9y4C_ep3Hyd6bkdzGa_x-27" value="" style="shape=flexArrow;endArrow=classic;html=1;rounded=0;width=4.357541899441341;endSize=2.241340782122905;endWidth=6.663961798945102;" edge="1" parent="1">
          <mxGeometry width="50" height="50" relative="1" as="geometry">
            <mxPoint x="174" y="332.5" as="sourcePoint" />
            <mxPoint x="174.04000000000002" y="347.5" as="targetPoint" />
          </mxGeometry>
        </mxCell>
        <mxCell id="9y4C_ep3Hyd6bkdzGa_x-28" value="" style="shape=flexArrow;endArrow=classic;html=1;rounded=0;width=4.357541899441341;endSize=2.241340782122905;endWidth=6.663961798945102;" edge="1" parent="1">
          <mxGeometry width="50" height="50" relative="1" as="geometry">
            <mxPoint x="174" y="265" as="sourcePoint" />
            <mxPoint x="174.04000000000002" y="280" as="targetPoint" />
          </mxGeometry>
        </mxCell>
        <mxCell id="9y4C_ep3Hyd6bkdzGa_x-29" value="&lt;span style=&quot;font-size: 14px; text-wrap-mode: nowrap;&quot;&gt;Approxmate&amp;nbsp;&lt;/span&gt;&lt;div&gt;&lt;span style=&quot;font-size: 14px; text-wrap-mode: nowrap;&quot;&gt;Signed Laplacian&lt;/span&gt;&lt;/div&gt;" style="rounded=1;whiteSpace=wrap;html=1;" vertex="1" parent="1">
          <mxGeometry x="545" y="284" width="115" height="39" as="geometry" />
        </mxCell>
        <mxCell id="9y4C_ep3Hyd6bkdzGa_x-30" value="&lt;span style=&quot;font-size: 14px; text-wrap-mode: nowrap;&quot;&gt;Experiments&lt;/span&gt;" style="rounded=1;whiteSpace=wrap;html=1;" vertex="1" parent="1">
          <mxGeometry x="547.5" y="380" width="110" height="30" as="geometry" />
        </mxCell>
        <mxCell id="9y4C_ep3Hyd6bkdzGa_x-31" value="" style="shape=flexArrow;endArrow=classic;html=1;rounded=0;width=4.357541899441341;endSize=2.241340782122905;endWidth=6.663961798945102;" edge="1" parent="1">
          <mxGeometry width="50" height="50" relative="1" as="geometry">
            <mxPoint x="599.88" y="362.5" as="sourcePoint" />
            <mxPoint x="600.02" y="347.5" as="targetPoint" />
          </mxGeometry>
        </mxCell>
        <mxCell id="9y4C_ep3Hyd6bkdzGa_x-32" value="&lt;font style=&quot;font-size: 14px;&quot;&gt;validate&lt;/font&gt;" style="text;html=1;align=center;verticalAlign=middle;resizable=0;points=[];autosize=1;strokeColor=none;fillColor=none;" vertex="1" parent="1">
          <mxGeometry x="600" y="340" width="70" height="30" as="geometry" />
        </mxCell>
        <mxCell id="9y4C_ep3Hyd6bkdzGa_x-33" value="&lt;font style=&quot;font-size: 15px;&quot;&gt;express&lt;/font&gt;" style="text;html=1;align=center;verticalAlign=middle;resizable=0;points=[];autosize=1;strokeColor=none;fillColor=none;" vertex="1" parent="1">
          <mxGeometry x="178" y="260" width="80" height="30" as="geometry" />
        </mxCell>
        <mxCell id="9y4C_ep3Hyd6bkdzGa_x-35" value="" style="shape=flexArrow;endArrow=classic;html=1;rounded=0;width=4.357541899441341;endSize=2.241340782122905;endWidth=6.663961798945102;" edge="1" parent="1">
          <mxGeometry width="50" height="50" relative="1" as="geometry">
            <mxPoint x="599" y="275" as="sourcePoint" />
            <mxPoint x="599.14" y="260" as="targetPoint" />
          </mxGeometry>
        </mxCell>
        <mxCell id="9y4C_ep3Hyd6bkdzGa_x-36" value="&lt;font style=&quot;font-size: 14px;&quot;&gt;compute&lt;/font&gt;" style="text;html=1;align=center;verticalAlign=middle;resizable=0;points=[];autosize=1;strokeColor=none;fillColor=none;" vertex="1" parent="1">
          <mxGeometry x="595" y="250" width="80" height="30" as="geometry" />
        </mxCell>
        <mxCell id="9y4C_ep3Hyd6bkdzGa_x-37" value="&lt;span style=&quot;font-size: 14px; text-wrap-mode: nowrap;&quot;&gt;Resistance&amp;nbsp;&lt;/span&gt;&lt;div&gt;&lt;span style=&quot;font-size: 14px; text-wrap-mode: nowrap;&quot;&gt;distance&lt;/span&gt;&lt;/div&gt;" style="rounded=1;whiteSpace=wrap;html=1;" vertex="1" parent="1">
          <mxGeometry x="547.5" y="210" width="110" height="40" as="geometry" />
        </mxCell>
        <mxCell id="9y4C_ep3Hyd6bkdzGa_x-40" value="" style="shape=flexArrow;endArrow=classic;html=1;rounded=0;width=10.833333333333334;endSize=4.333333333333334;" edge="1" parent="1">
          <mxGeometry width="50" height="50" relative="1" as="geometry">
            <mxPoint x="275.5" y="334.86" as="sourcePoint" />
            <mxPoint x="332.5" y="334.86" as="targetPoint" />
            <Array as="points">
              <mxPoint x="297.5" y="334.86" />
            </Array>
          </mxGeometry>
        </mxCell>
        <mxCell id="9y4C_ep3Hyd6bkdzGa_x-41" value="" style="shape=flexArrow;endArrow=classic;html=1;rounded=0;width=4.357541899441341;endSize=2.241340782122905;endWidth=6.663961798945102;" edge="1" parent="1">
          <mxGeometry width="50" height="50" relative="1" as="geometry">
            <mxPoint x="514.9955555555557" y="269" as="sourcePoint" />
            <mxPoint x="534.52" y="269" as="targetPoint" />
          </mxGeometry>
        </mxCell>
        <mxCell id="9y4C_ep3Hyd6bkdzGa_x-42" value="" style="shape=flexArrow;endArrow=classic;html=1;rounded=0;width=4.357541899441341;endSize=2.241340782122905;endWidth=6.663961798945102;" edge="1" parent="1">
          <mxGeometry width="50" height="50" relative="1" as="geometry">
            <mxPoint x="514.9955555555557" y="377" as="sourcePoint" />
            <mxPoint x="534.52" y="377" as="targetPoint" />
          </mxGeometry>
        </mxCell>
      </root>
    </mxGraphModel>
  </diagram>
</mxfile>
